<mxfile host="app.diagrams.net" modified="2023-10-15T22:14:50.888Z" agent="Mozilla/5.0 (Windows NT 10.0; Win64; x64) AppleWebKit/537.36 (KHTML, like Gecko) Chrome/117.0.0.0 Safari/537.36" version="22.0.4" etag="kc2M3DIktowCV-21KaiS" type="github">
  <diagram name="Page-1" id="_6_rjmmAdlhByK9vwePi">
    <mxGraphModel>
      <root>
        <mxCell id="0" />
        <mxCell id="1" parent="0" />
      </root>
    </mxGraphModel>
  </diagram>
</mxfile>
